<?xml version="1.0" encoding="utf-8"?>
<!-- Generator: Adobe Illustrator 15.0.0, SVG Export Plug-In . SVG Version: 6.00 Build 0)  -->
<!DOCTYPE svg PUBLIC "-//W3C//DTD SVG 1.1//EN" "http://www.w3.org/Graphics/SVG/1.1/DTD/svg11.dtd">
<svg version="1.1" id="Layer_1" xmlns="http://www.w3.org/2000/svg" xmlns:xlink="http://www.w3.org/1999/xlink" x="0px" y="0px"
	 width="75px" height="75px" viewBox="0 0 75 75" enable-background="new 0 0 75 75" xml:space="preserve">
<g>
	<path fill="#FFFFFF" d="M56.814,75c-0.544,0-0.984-0.441-0.984-0.983V57.249c0-0.546,0.44-0.983,0.984-0.983
		c0.543,0,0.983,0.438,0.983,0.983v16.768C57.798,74.559,57.357,75,56.814,75z"/>
</g>
<g>
	<path fill="#FFFFFF" d="M54.267,54.287c-0.251,0-0.503-0.097-0.695-0.288l-5.147-5.147c-0.384-0.383-0.384-1.007,0-1.391
		c0.385-0.385,1.006-0.385,1.391-0.001l5.147,5.148c0.385,0.382,0.385,1.006,0.001,1.391C54.771,54.19,54.519,54.287,54.267,54.287z
		"/>
</g>
<g>
	<path fill="#FFFFFF" d="M43.819,41.883c-0.366,0-0.718-0.205-0.888-0.558l-7.981-16.576c-0.235-0.49-0.03-1.078,0.46-1.313
		c0.489-0.235,1.078-0.03,1.314,0.459l7.979,16.578c0.236,0.489,0.03,1.078-0.459,1.313C44.107,41.852,43.962,41.883,43.819,41.883z
		"/>
</g>
<g>
	<path fill="#FFFFFF" d="M33.039,19.492c-0.366,0-0.718-0.206-0.887-0.558l-5.57-11.566c-0.235-0.489-0.03-1.078,0.46-1.313
		c0.49-0.235,1.078-0.029,1.313,0.46l5.569,11.566c0.236,0.49,0.03,1.078-0.46,1.313C33.327,19.461,33.182,19.492,33.039,19.492z"/>
</g>
<g>
	<path fill="#FFFFFF" d="M65.198,26.091c-3.624,0-6.572-2.948-6.572-6.573s2.948-6.574,6.572-6.574c3.625,0,6.573,2.949,6.573,6.574
		S68.823,26.091,65.198,26.091z M65.198,14.913c-2.539,0-4.605,2.065-4.605,4.605c0,2.54,2.066,4.605,4.605,4.605
		c2.54,0,4.606-2.066,4.606-4.605C69.805,16.978,67.738,14.913,65.198,14.913z"/>
</g>
<g>
	<path fill="#FFFFFF" d="M30.263,75c-0.205,0-0.412-0.064-0.589-0.196l-5.589-4.193c-0.153-0.115-0.27-0.271-0.334-0.451
		l-5.589-15.37c-0.025-0.069-0.042-0.143-0.052-0.214l-2.795-22.359c-0.015-0.121-0.008-0.243,0.021-0.36l2.718-10.871L12.582,7.307
		c-0.202-0.504,0.043-1.077,0.548-1.279c0.504-0.2,1.077,0.044,1.279,0.548l5.59,13.974c0.077,0.192,0.091,0.403,0.041,0.604
		l-2.75,11.001l2.758,22.065l5.452,14.992l5.355,4.017c0.435,0.327,0.523,0.942,0.196,1.378C30.857,74.864,30.562,75,30.263,75z"/>
</g>
<g>
	<path fill="#FFFFFF" d="M33.058,73.604h-0.005c-0.54,0-1.065-0.115-1.561-0.341c-0.917-0.417-1.617-1.169-1.972-2.112
		c-0.354-0.946-0.319-1.973,0.099-2.892l6.988-15.369c0.136-0.308,0.326-0.609,0.561-0.887l4.193-4.894l-5.502-1.099l-8.342,9.533
		c-0.719,0.82-1.755,1.289-2.845,1.289c-0.913,0-1.796-0.331-2.486-0.931c-1.567-1.375-1.727-3.766-0.357-5.335l9.783-11.181
		c0.881-1.007,2.284-1.475,3.584-1.217l11.6,2.321l6.719-9.24L33.261,24.5c-0.959-0.32-1.734-0.993-2.185-1.896
		c-0.451-0.902-0.524-1.927-0.204-2.884c0.514-1.546,1.954-2.584,3.583-2.584c0.409,0,0.814,0.065,1.203,0.197l25.146,8.382
		c1.166,0.391,2.072,1.325,2.423,2.5l4.194,13.974c0.312,1.041,0.16,2.166-0.415,3.087l-6.987,11.178
		c-0.694,1.113-1.893,1.776-3.207,1.776c-0.707,0-1.4-0.197-2.001-0.574c-1.766-1.104-2.304-3.438-1.201-5.203l6.082-9.731
		l-1.512-5.033l-6.641,9.131c-0.031,0.052-0.066,0.104-0.1,0.145l-8.176,9.543l-6.768,14.879
		C35.887,72.732,34.536,73.604,33.058,73.604z M35.495,43.95c0.063,0,0.128,0.008,0.193,0.02l7.707,1.541
		c0.343,0.068,0.623,0.312,0.737,0.645c0.113,0.329,0.044,0.695-0.184,0.96l-5.283,6.163c-0.106,0.128-0.199,0.273-0.263,0.417
		L31.41,69.073c-0.2,0.44-0.217,0.934-0.047,1.386c0.169,0.454,0.505,0.812,0.945,1.013c0.237,0.107,0.488,0.163,0.745,0.163h0.005
		c0.708,0,1.355-0.416,1.648-1.062l6.825-15.009c0.037-0.084,0.088-0.161,0.148-0.233l8.201-9.572
		c0.01-0.017,0.021-0.033,0.03-0.045l7.846-10.787c0.221-0.303,0.593-0.452,0.961-0.392c0.368,0.062,0.67,0.329,0.778,0.687
		l2.208,7.361c0.082,0.271,0.041,0.565-0.108,0.806l-6.316,10.106c-0.529,0.846-0.271,1.964,0.575,2.493
		c0.826,0.517,1.983,0.245,2.496-0.577l6.987-11.178c0.275-0.44,0.349-0.979,0.199-1.479l-4.193-13.974
		c-0.169-0.563-0.604-1.011-1.163-1.199l-25.147-8.382c-0.942-0.315-1.987,0.216-2.295,1.143c-0.152,0.459-0.118,0.951,0.099,1.384
		c0.216,0.433,0.588,0.755,1.047,0.908l21.53,7.177c0.297,0.099,0.53,0.334,0.626,0.633c0.096,0.299,0.043,0.625-0.142,0.879
		l-7.88,10.835c-0.226,0.31-0.611,0.459-0.988,0.387L34.812,40.1c-0.642-0.133-1.297,0.102-1.718,0.584l-9.782,11.18
		c-0.656,0.752-0.581,1.899,0.171,2.556c0.724,0.632,1.921,0.551,2.555-0.171l8.716-9.961C34.942,44.07,35.214,43.95,35.495,43.95z"
		/>
</g>
<g>
	<path fill="#FFFFFF" d="M6.508,30.284c-0.413,0-0.796-0.261-0.933-0.673L2.78,21.226c-0.054-0.163-0.065-0.335-0.032-0.503
		l1.359-6.794L2.749,7.134C2.642,6.602,2.988,6.083,3.52,5.977C4.056,5.87,4.571,6.216,4.678,6.748l1.397,6.987
		c0.025,0.127,0.025,0.258,0,0.386l-1.346,6.73l2.712,8.137c0.172,0.515-0.107,1.073-0.623,1.244
		C6.716,30.268,6.611,30.284,6.508,30.284z"/>
</g>
<g>
	<path fill="#FFFFFF" d="M9.303,75c-0.412,0-0.796-0.262-0.933-0.673l-1.398-4.193c-0.053-0.161-0.064-0.336-0.031-0.503
		l1.331-6.656l-4.041-8.082c-0.243-0.487-0.046-1.077,0.44-1.319c0.487-0.243,1.077-0.046,1.319,0.439l4.193,8.385
		c0.097,0.194,0.127,0.417,0.084,0.634L8.921,69.76l1.314,3.945c0.172,0.517-0.106,1.074-0.622,1.244C9.51,74.983,9.406,75,9.303,75
		z"/>
</g>
<g>
	<path fill="#FFFFFF" d="M6.508,44.256c-0.252,0-0.503-0.095-0.695-0.288c-0.384-0.383-0.384-1.006,0-1.39l2.293-2.293l-1.08-2.161
		c-0.243-0.486-0.046-1.077,0.44-1.32c0.487-0.244,1.077-0.045,1.32,0.44l1.397,2.794c0.189,0.38,0.115,0.838-0.185,1.136
		l-2.794,2.794C7.012,44.161,6.76,44.256,6.508,44.256z"/>
</g>
</svg>
