<?xml version="1.0" encoding="utf-8"?>
<!-- Generator: Adobe Illustrator 15.0.0, SVG Export Plug-In . SVG Version: 6.00 Build 0)  -->
<!DOCTYPE svg PUBLIC "-//W3C//DTD SVG 1.1//EN" "http://www.w3.org/Graphics/SVG/1.1/DTD/svg11.dtd">
<svg version="1.1" id="Layer_1" xmlns="http://www.w3.org/2000/svg" xmlns:xlink="http://www.w3.org/1999/xlink" x="0px" y="0px"
	 width="75px" height="75px" viewBox="0 0 75 75" enable-background="new 0 0 75 75" xml:space="preserve">
<path fill="#FFFFFF" d="M73.5,67.471h-0.005c-0.74-0.003-1.341-0.605-1.337-1.346l0.152-46.509
	c-1.924,0.829-4.859,2.748-4.859,6.743v16.313l3.104,0.09c0.74,0.021,1.322,0.639,1.303,1.38c-0.022,0.741-0.637,1.312-1.381,1.302
	l-4.406-0.129c-0.727-0.02-1.303-0.613-1.303-1.34V26.359c0-6.408,5.635-9.287,8.613-9.915c0.396-0.083,0.811,0.017,1.123,0.273
	c0.314,0.255,0.496,0.64,0.495,1.044l-0.158,48.371C74.839,66.873,74.238,67.471,73.5,67.471"/>
<path fill="#FFFFFF" d="M37.376,62.057l-0.149-0.002c-4.793-0.039-9.283-1.941-12.644-5.357c-3.36-3.418-5.189-7.938-5.149-12.73
	c0.08-9.812,8.127-17.794,17.938-17.794h0.15c4.792,0.04,9.283,1.943,12.643,5.36c3.36,3.417,5.19,7.937,5.151,12.729
	C55.234,54.074,47.188,62.057,37.376,62.057 M37.372,28.854c-8.344,0-15.188,6.789-15.255,15.134
	c-0.034,4.075,1.521,7.92,4.38,10.825c2.857,2.905,6.676,4.524,10.751,4.56h0.128c8.345,0,15.188-6.789,15.256-15.133
	c0.034-4.076-1.522-7.922-4.38-10.828c-2.857-2.905-6.677-4.524-10.752-4.558H37.372z"/>
<path fill="#FFFFFF" d="M37.375,70c-14.273,0-25.886-11.612-25.886-25.887c0-14.273,11.613-25.887,25.886-25.887
	c14.273,0,25.886,11.613,25.886,25.887C63.261,58.388,51.646,70,37.375,70 M37.375,20.912c-12.794,0-23.203,10.408-23.203,23.202
	c0,12.795,10.409,23.203,23.203,23.203s23.204-10.408,23.204-23.203C60.578,31.32,50.169,20.912,37.375,20.912"/>
<path fill="#FFFFFF" d="M38.667,56.558c-0.682,0-1.266-0.519-1.333-1.212c-0.072-0.737,0.468-1.393,1.205-1.465
	c4.716-0.457,8.271-4.381,8.271-9.127c0-2.023-0.646-3.941-1.869-5.547c-0.447-0.588-0.334-1.431,0.258-1.879
	c0.588-0.449,1.43-0.336,1.879,0.256c1.58,2.074,2.416,4.555,2.416,7.171c0,6.135-4.598,11.204-10.694,11.798
	C38.754,56.556,38.711,56.558,38.667,56.558"/>
<path fill="#FFFFFF" d="M1.342,32.583c-0.741,0-1.342-0.6-1.342-1.341V19.424c0-0.741,0.601-1.341,1.342-1.341
	c0.741,0,1.342,0.601,1.342,1.341v11.819C2.684,31.983,2.083,32.583,1.342,32.583"/>
<path fill="#FFFFFF" d="M5.833,31.401c-0.741,0-1.342-0.601-1.342-1.342V19.187c0-0.741,0.601-1.342,1.342-1.342
	s1.341,0.601,1.341,1.342V30.06C7.174,30.802,6.574,31.401,5.833,31.401"/>
<path fill="#FFFFFF" d="M10.324,32.583c-0.742,0-1.342-0.601-1.342-1.342V19.424c0-0.741,0.6-1.341,1.342-1.341
	c0.741,0,1.341,0.601,1.341,1.341v11.819C11.666,31.983,11.065,32.583,10.324,32.583"/>
<path fill="#FFFFFF" d="M5.253,36.066c-0.304,0-0.605-0.102-0.851-0.304l-3.814-3.128c-0.573-0.471-0.656-1.316-0.187-1.888
	c0.47-0.574,1.315-0.657,1.888-0.188l3.063,2.514l4.223-2.687c0.625-0.398,1.455-0.213,1.852,0.412
	c0.398,0.625,0.214,1.455-0.412,1.852l-5.042,3.207C5.752,35.998,5.502,36.066,5.253,36.066"/>
<path fill="#FFFFFF" d="M5.37,67.541H5.366c-0.742-0.004-1.34-0.606-1.337-1.349l0.116-31.008c0.002-0.739,0.603-1.337,1.341-1.337
	H5.49c0.741,0.004,1.34,0.605,1.337,1.348L6.711,66.203C6.709,66.943,6.109,67.541,5.37,67.541"/>
</svg>
