<?xml version="1.0" encoding="utf-8"?>
<!-- Generator: Adobe Illustrator 15.0.0, SVG Export Plug-In . SVG Version: 6.00 Build 0)  -->
<!DOCTYPE svg PUBLIC "-//W3C//DTD SVG 1.1//EN" "http://www.w3.org/Graphics/SVG/1.1/DTD/svg11.dtd">
<svg version="1.1" id="Layer_1" xmlns="http://www.w3.org/2000/svg" xmlns:xlink="http://www.w3.org/1999/xlink" x="0px" y="0px"
	 width="75px" height="75px" viewBox="0 0 75 75" enable-background="new 0 0 75 75" xml:space="preserve">
<g>
	<rect x="24.436" y="31.451" fill="#FFFFFF" width="1.936" height="36.291"/>
</g>
<g>
	<rect x="48.387" y="45.727" fill="#FFFFFF" width="2.42" height="28.063"/>
</g>
<path fill="#FFFFFF" d="M74.535,30.498c-0.294-0.229-0.678-0.308-1.038-0.22l-17.894,4.474l-1.683,2.913l18.658-4.664v33.797
	l-22.983,5.746l-23.9-5.976c-0.097-0.023-0.195-0.036-0.293-0.036c-0.098,0-0.197,0.013-0.293,0.036L2.42,72.241V38.443
	l22.984-5.745l5.732,1.434l-1.681-2.915l-3.758-0.938c-0.193-0.048-0.394-0.048-0.587,0L0.916,36.326C0.377,36.461,0,36.945,0,37.5
	v36.29c0,0.373,0.171,0.726,0.465,0.954C0.68,74.911,0.943,75,1.209,75c0.098,0,0.197-0.014,0.293-0.036l23.9-5.976l23.899,5.976
	c0.193,0.048,0.395,0.048,0.588,0l24.193-6.048C74.623,68.78,75,68.297,75,67.742V31.451C75,31.079,74.828,30.728,74.535,30.498z"/>
<g>
	<path fill="#FFFFFF" d="M43.549,47.782c-0.433,0-0.832-0.23-1.049-0.605l-13.086-22.69c-1.436-2.484-2.196-5.305-2.196-8.156
		C27.218,7.326,34.544,0,43.549,0c9.004,0,16.33,7.326,16.33,16.331c0,2.853-0.76,5.674-2.197,8.157L44.598,47.177
		C44.38,47.552,43.98,47.782,43.549,47.782z M43.549,2.419c-7.671,0-13.912,6.241-13.912,13.911c0,2.426,0.647,4.828,1.872,6.946
		l12.04,20.875l12.037-20.874c1.227-2.118,1.873-4.52,1.873-6.947C57.459,8.66,51.219,2.419,43.549,2.419z"/>
</g>
<g>
	<path fill="#FFFFFF" d="M43.549,23.21c-3.794,0-6.88-3.086-6.88-6.88s3.086-6.88,6.88-6.88c3.793,0,6.879,3.086,6.879,6.88
		S47.342,23.21,43.549,23.21z M43.549,11.87c-2.46,0-4.461,2.001-4.461,4.46s2.001,4.461,4.461,4.461
		c2.459,0,4.461-2.001,4.461-4.461S46.008,11.87,43.549,11.87z"/>
</g>
</svg>
